<svg id="Layer_1" data-name="Layer 1" xmlns="http://www.w3.org/2000/svg" viewBox="0 0 20 14"><title>quotation-marks</title><g id="v4"><g id="MVL_Certification_v4.1-Overview" data-name="MVL Certification v4.1-Overview"><g id="testimonial-module"><g id="Group-2"><g id="Group-7"><g id="Page-1"><path id="Fill-1" d="M4.981,5A4.1,4.1,0,0,1,8.088,1.842a.182.182,0,0,0,.116-.2L8,.1S7.972-.022,7.787,0A8.473,8.473,0,0,0,.066,9.572c.6,3.405,3.107,4.722,5.379,4.374A4.466,4.466,0,0,0,8.946,8.8,4.252,4.252,0,0,0,4.981,5"/></g><g id="Page-1-Copy"><path id="Fill-1-2" data-name="Fill-1" d="M15.981,5a4.1,4.1,0,0,1,3.107-3.157.182.182,0,0,0,.116-.2L19,.1s-.023-.125-.208-.1a8.473,8.473,0,0,0-7.721,9.569c.6,3.405,3.107,4.722,5.379,4.374a4.466,4.466,0,0,0,3.5-5.145A4.252,4.252,0,0,0,15.981,5"/></g></g></g></g></g></g></svg>
