<?xml version="1.0" standalone="no"?>
<!DOCTYPE svg PUBLIC "-//W3C//DTD SVG 20010904//EN"
 "http://www.w3.org/TR/2001/REC-SVG-20010904/DTD/svg10.dtd">
<svg version="1.0" xmlns="http://www.w3.org/2000/svg"
 width="558.000000pt" height="558.000000pt" viewBox="0 0 558.000000 558.000000"
 preserveAspectRatio="xMidYMid meet">
<metadata>
Created by potrace 1.11, written by Peter Selinger 2001-2013
</metadata>
<g transform="translate(0.000000,558.000000) scale(0.100000,-0.100000)"
fill="#000000" stroke="none">
<path d="M2761 5568 c-1 -20 -55 -78 -72 -78 -7 0 -10 -3 -6 -6 7 -7 -66 -82
-75 -77 -5 2 -8 0 -8 -6 0 -13 -218 -231 -231 -231 -6 0 -8 -3 -6 -7 5 -10
-70 -83 -77 -75 -3 3 -6 0 -6 -7 0 -15 -147 -161 -162 -161 -6 0 -9 -3 -6 -6
10 -9 -203 -215 -214 -207 -6 3 -8 1 -5 -4 8 -12 -27 -56 -37 -46 -3 3 -6 1
-6 -5 0 -15 -37 -52 -52 -52 -6 0 -9 -2 -6 -5 3 -3 -61 -73 -143 -155 -82 -81
-149 -154 -149 -162 0 -8 6 -20 13 -27 9 -11 9 -13 0 -7 -16 9 -16 1 -2 -26 8
-15 8 -19 0 -14 -7 5 -11 -1 -11 -14 0 -13 4 -19 12 -14 7 5 8 3 2 -7 -14 -23
-16 -51 -2 -43 7 5 8 3 3 -6 -15 -24 -17 -82 -3 -91 7 -5 8 -9 3 -9 -6 0 -11
-9 -12 -20 -1 -11 2 -18 6 -16 4 3 8 -1 8 -9 0 -8 -3 -12 -7 -10 -9 6 -5 -149
5 -165 5 -9 4 -11 -3 -6 -16 10 -15 -7 1 -23 10 -11 10 -13 0 -7 -16 9 -16 1
-2 -26 8 -15 8 -19 0 -14 -7 5 -11 -1 -11 -14 0 -13 4 -19 12 -14 7 5 8 3 2
-7 -14 -23 -15 -52 -2 -61 7 -4 8 -8 3 -8 -6 0 -11 -9 -12 -20 -1 -11 2 -18 6
-16 4 3 8 -1 8 -9 0 -8 -3 -12 -6 -10 -4 2 -7 -19 -8 -46 -1 -35 2 -47 10 -42
8 5 8 2 0 -8 -10 -12 -10 -18 0 -29 9 -10 9 -11 0 -6 -7 4 -13 3 -13 -1 0 -5
6 -15 13 -22 6 -8 7 -11 1 -8 -13 8 -13 -61 0 -82 6 -10 5 -12 -2 -7 -16 10
-15 -7 1 -23 9 -11 9 -13 0 -7 -16 9 -16 1 -2 -26 8 -15 8 -19 0 -14 -7 5 -11
-1 -11 -14 0 -13 4 -19 12 -14 7 5 8 3 2 -7 -14 -23 -16 -51 -2 -43 7 5 8 3 3
-6 -15 -24 -17 -82 -3 -91 9 -6 9 -9 1 -9 -12 0 -10 -30 3 -52 4 -6 3 -9 -2
-5 -12 7 -12 -173 0 -192 6 -10 5 -12 -2 -7 -15 9 -15 1 -2 -24 7 -13 7 -21
-2 -26 -7 -5 -8 -3 -3 6 5 8 4 11 -3 6 -6 -4 -9 -13 -6 -21 4 -8 11 -12 17 -8
6 4 7 1 1 -8 -12 -21 -13 -59 0 -59 6 0 5 -4 -2 -9 -15 -9 -15 -17 0 -45 5
-10 6 -16 1 -13 -4 3 -9 -17 -10 -44 -1 -32 2 -47 9 -42 7 4 8 1 2 -8 -12 -19
-16 -51 -6 -45 5 3 9 -1 9 -9 0 -8 -4 -12 -8 -10 -9 6 -5 -58 6 -75 5 -9 4
-11 -3 -6 -16 10 -15 -16 1 -33 9 -11 9 -13 0 -7 -16 9 -16 1 -3 -24 7 -13 7
-21 -2 -26 -7 -5 -8 -3 -3 6 5 8 4 11 -3 6 -6 -4 -9 -13 -6 -21 4 -8 11 -12
17 -8 6 4 7 1 1 -8 -14 -23 -16 -51 -2 -43 7 5 8 3 3 -6 -15 -24 -17 -82 -3
-91 7 -5 8 -9 3 -9 -6 0 -11 -9 -12 -20 -1 -11 2 -18 6 -16 4 3 8 -1 8 -9 0
-8 -3 -12 -7 -10 -9 6 -5 -149 5 -165 5 -9 4 -11 -3 -6 -16 10 -15 -7 1 -23
10 -11 10 -13 0 -7 -16 9 -16 1 -2 -26 8 -15 8 -19 0 -14 -7 5 -11 -1 -11 -14
0 -13 4 -19 12 -14 7 5 8 3 2 -7 -14 -23 -16 -51 -2 -43 7 5 8 3 3 -6 -15 -24
-17 -82 -3 -91 7 -5 8 -9 3 -9 -6 0 -11 -9 -12 -20 -1 -11 2 -18 6 -16 4 3 8
-1 8 -9 0 -8 -3 -12 -6 -10 -4 2 -6 -34 -6 -80 0 -46 4 -81 8 -78 5 3 5 -3 -1
-13 -5 -11 -8 -40 -7 -65 3 -42 8 -51 81 -125 44 -43 82 -78 87 -76 4 1 7 -2
7 -7 0 -14 107 -121 121 -121 7 0 10 -3 6 -6 -7 -7 120 -134 134 -134 6 0 8
-4 5 -8 -6 -9 35 -48 47 -44 4 1 7 -2 7 -8 0 -13 88 -100 101 -100 6 0 8 -4 5
-8 -6 -9 35 -48 47 -44 4 1 7 -2 7 -8 0 -13 107 -120 121 -120 5 0 8 -3 6 -8
-5 -9 150 -162 158 -154 3 3 5 0 5 -7 0 -7 27 -39 60 -71 32 -31 57 -60 54
-63 -3 -2 7 -8 22 -11 14 -4 24 -9 21 -12 -7 -7 130 -144 145 -144 6 0 9 -3 6
-6 -6 -6 27 -44 38 -44 3 0 30 25 59 54 29 30 55 52 59 49 3 -4 6 -1 6 6 0 15
126 141 142 141 6 0 9 3 5 6 -7 8 36 53 46 47 4 -2 7 1 7 7 0 15 87 100 102
100 6 0 9 3 5 6 -7 8 36 53 46 47 4 -2 7 1 7 8 0 14 67 79 82 79 6 0 9 3 6 6
-8 7 113 130 124 127 4 -2 8 1 8 7 0 12 135 150 148 150 5 0 14 11 20 25 6 14
19 25 28 25 10 0 15 3 12 6 -7 6 247 264 260 264 5 0 14 11 20 25 6 14 19 25
28 25 10 0 14 3 11 6 -7 7 30 44 43 44 4 0 7 6 8 13 6 41 4 3007 -2 3030 -3
15 -13 27 -20 27 -8 0 -17 7 -20 16 -3 8 -11 12 -16 9 -6 -4 -9 -2 -8 3 2 4
-14 25 -34 45 -21 20 -38 41 -38 47 0 6 -3 9 -7 7 -10 -6 -53 39 -46 47 6 6
-13 10 -30 7 -5 -1 -6 3 -2 8 3 6 -4 15 -15 21 -11 6 -18 15 -15 21 4 5 1 9
-5 9 -6 0 -29 20 -52 45 -23 24 -45 42 -50 39 -4 -3 -8 3 -8 14 0 10 -11 24
-26 30 -14 7 -22 17 -19 22 3 6 2 10 -4 10 -14 0 -91 79 -91 92 0 6 -3 9 -6 5
-8 -7 -54 38 -54 53 0 6 -4 9 -8 6 -5 -3 -16 6 -26 19 -10 14 -23 22 -29 18
-6 -3 -7 -1 -3 5 4 7 2 12 -4 12 -6 0 -8 5 -5 10 3 6 1 10 -5 10 -14 0 -40 25
-40 38 0 5 -12 14 -26 20 -14 7 -22 17 -19 22 3 6 0 10 -7 10 -7 0 -19 9 -26
20 -7 12 -17 18 -23 15 -5 -4 -8 -2 -7 3 2 5 -14 25 -34 45 -21 20 -38 40 -38
46 0 10 -14 15 -33 12 -4 0 -6 2 -5 6 4 12 -35 53 -44 47 -5 -3 -7 0 -6 8 2 7
-3 12 -10 10 -8 -1 -11 1 -8 6 6 9 -35 48 -46 44 -5 -1 -7 2 -5 6 3 12 -50 62
-59 54 -4 -4 -4 -2 -1 4 7 12 -62 80 -76 76 -5 -1 -6 2 -2 7 3 6 -6 18 -20 27
-14 9 -25 23 -25 30 0 8 -5 14 -11 14 -6 0 -20 11 -31 25 -18 23 -56 37 -43
15 3 -5 2 -10 -4 -10 -5 0 -12 6 -14 13 -3 7 -6 5 -6 -5z m1136 -1152 c-3 -8
-3 -17 0 -20 10 -10 9 -96 -2 -96 -5 0 -4 -5 3 -12 7 -7 8 -17 1 -30 -5 -10
-6 -18 -1 -18 9 0 8 -58 -2 -67 -3 -3 -1 -13 4 -23 5 -10 6 -20 3 -24 -9 -9
-13 -36 -5 -36 9 0 7 -114 -2 -129 -4 -6 -1 -11 6 -11 9 0 9 -3 -2 -10 -12 -8
-12 -10 -1 -10 11 0 11 -3 1 -15 -9 -11 -9 -15 -1 -15 7 0 9 -5 4 -12 -10 -17
-13 -38 -5 -38 9 0 7 -114 -2 -129 -4 -6 -1 -11 6 -11 9 0 9 -3 -2 -10 -12 -8
-12 -10 -1 -10 11 0 11 -3 1 -15 -9 -11 -9 -15 -1 -15 7 0 9 -5 4 -12 -10 -17
-13 -38 -5 -38 9 0 7 -114 -2 -129 -4 -6 -1 -11 6 -11 9 0 9 -3 -2 -10 -12 -8
-12 -10 -1 -10 11 0 11 -3 1 -15 -9 -11 -9 -15 -1 -15 7 0 9 -5 4 -12 -11 -19
-13 -38 -3 -38 5 0 5 -13 0 -30 -6 -21 -5 -30 3 -30 8 0 8 -3 2 -8 -14 -10
-75 -131 -75 -148 0 -8 -5 -14 -12 -14 -6 0 -9 -3 -5 -6 3 -4 0 -13 -8 -20 -8
-8 -12 -20 -9 -28 3 -7 -2 -19 -10 -26 -9 -7 -13 -16 -10 -21 3 -5 0 -9 -5 -9
-6 0 -11 -9 -11 -20 0 -11 -4 -20 -10 -20 -5 0 -9 -3 -8 -7 3 -12 -55 -127
-65 -132 -5 -2 -3 -7 4 -12 10 -6 11 -9 2 -9 -7 0 -13 -7 -13 -15 0 -8 -4 -15
-10 -15 -5 0 -10 -7 -10 -15 0 -8 -9 -30 -19 -49 -11 -19 -17 -37 -14 -40 4
-3 1 -6 -5 -6 -7 0 -12 -7 -12 -15 0 -8 -4 -15 -9 -15 -6 0 -8 -9 -6 -20 2
-12 -2 -20 -10 -20 -8 0 -12 -6 -9 -14 3 -8 1 -17 -5 -21 -6 -3 -11 -18 -11
-33 0 -21 -2 -24 -10 -12 -8 12 -10 9 -10 -12 0 -16 -4 -28 -10 -28 -5 0 -10
-9 -10 -20 0 -11 -5 -20 -11 -20 -5 0 -7 -4 -4 -10 3 -5 1 -10 -5 -10 -6 0 -9
-4 -5 -9 3 -5 1 -12 -5 -16 -6 -4 -8 -11 -5 -16 4 -5 1 -9 -4 -9 -6 0 -11 -9
-11 -20 0 -11 -4 -20 -10 -20 -5 0 -10 -9 -10 -20 0 -11 -5 -20 -10 -20 -6 0
-10 -8 -8 -17 2 -11 -2 -17 -10 -15 -8 1 -11 -2 -6 -9 3 -6 2 -14 -4 -18 -7
-4 -13 -16 -15 -26 -5 -30 -41 -105 -49 -105 -5 0 -8 -9 -8 -20 0 -11 -4 -20
-10 -20 -5 0 -7 -6 -4 -13 3 -8 -2 -20 -10 -27 -9 -7 -13 -16 -10 -21 3 -5 0
-9 -5 -9 -6 0 -11 -11 -11 -25 0 -14 -4 -25 -9 -25 -5 0 -13 -10 -17 -22 -4
-13 -10 -25 -15 -28 -5 -3 -10 -15 -13 -25 -9 -41 -19 -65 -27 -65 -5 0 -9 -9
-9 -20 0 -11 -5 -20 -10 -20 -6 0 -9 -3 -9 -7 3 -16 -23 -73 -31 -68 -4 3 -6
-4 -3 -15 3 -11 0 -20 -6 -20 -6 0 -11 -6 -11 -13 0 -7 -16 -44 -35 -83 -19
-38 -35 -75 -35 -81 0 -7 -4 -13 -10 -13 -5 0 -10 -7 -10 -15 0 -18 -20 -57
-35 -67 -5 -4 -6 -8 -2 -8 4 0 2 -10 -5 -22 -7 -13 -11 -26 -10 -30 1 -5 -2
-8 -8 -8 -5 0 -10 -9 -10 -20 0 -11 -5 -20 -12 -20 -6 0 -8 -3 -5 -7 4 -3 -1
-15 -10 -26 -13 -15 -14 -18 -3 -12 12 7 12 5 -1 -11 -9 -10 -22 -36 -30 -57
-7 -20 -17 -37 -21 -37 -4 0 -8 -10 -8 -23 0 -13 -9 -33 -19 -44 -11 -12 -17
-24 -14 -27 4 -3 1 -6 -5 -6 -7 0 -11 -3 -11 -8 3 -19 -2 -45 -8 -39 -3 4 -11
3 -17 -3 -8 -6 -16 -2 -25 12 -8 13 -8 18 -1 13 7 -4 7 1 -2 14 -7 12 -16 21
-21 21 -4 0 -5 5 -2 10 3 6 1 10 -4 10 -6 0 -11 11 -11 25 0 14 -3 25 -8 25
-4 0 -13 15 -20 33 -23 56 -35 77 -43 77 -5 0 -6 7 -2 16 3 9 2 19 -3 23 -14
10 -34 49 -34 66 0 9 -4 14 -9 10 -6 -3 -8 3 -6 14 2 11 -3 22 -12 25 -9 4
-13 9 -10 13 4 3 1 15 -5 27 -7 11 -11 24 -10 29 1 4 -2 7 -8 7 -5 0 -10 5
-10 10 0 15 -42 104 -52 111 -5 3 -8 10 -7 15 3 18 -13 54 -22 48 -5 -3 -9 6
-9 20 0 14 -5 26 -12 26 -6 0 -9 3 -6 6 4 3 -7 30 -23 61 -16 30 -29 61 -29
69 0 8 -4 14 -10 14 -5 0 -10 12 -10 26 0 14 -4 23 -10 19 -5 -3 -10 3 -10 14
0 12 -5 21 -12 21 -6 0 -8 3 -5 6 4 4 -2 23 -12 43 -10 20 -27 54 -37 76 -11
22 -21 42 -24 45 -3 3 -7 14 -8 25 -2 11 -7 22 -10 25 -12 9 -32 50 -32 65 0
8 -4 15 -10 15 -5 0 -10 9 -10 19 0 11 -7 27 -16 35 -12 12 -12 16 -2 16 8 0
6 5 -5 11 -9 6 -15 14 -12 20 4 5 1 9 -4 9 -6 0 -11 7 -11 16 0 8 -7 22 -15
31 -8 8 -13 19 -10 24 4 5 2 9 -3 9 -5 0 -12 9 -15 20 -3 13 -1 18 6 14 7 -3
3 2 -7 10 -11 9 -16 16 -10 16 5 0 4 4 -3 8 -6 4 -13 16 -15 27 -1 11 -11 29
-20 39 -10 11 -18 25 -18 31 0 16 -24 65 -32 65 -4 0 -5 7 -2 15 4 8 1 15 -6
15 -6 0 -8 5 -5 10 3 6 1 10 -5 10 -6 0 -8 5 -5 10 3 6 2 10 -3 10 -5 0 -12
13 -15 29 -3 16 -12 35 -20 42 -7 8 -12 20 -9 27 2 6 -1 12 -6 12 -5 0 -16 20
-23 44 -7 25 -17 42 -21 40 -7 -4 -10 10 -7 32 0 4 -3 10 -8 13 -16 12 -34 52
-27 63 4 7 3 8 -4 4 -8 -5 -12 0 -12 13 0 12 -5 21 -11 21 -5 0 -8 4 -4 9 3 5
-2 17 -11 26 -9 9 -14 19 -10 22 3 3 2 11 -3 17 -22 27 -51 88 -51 107 0 11
-5 17 -10 14 -6 -3 -10 2 -10 12 0 11 -4 23 -9 28 -10 11 -20 145 -10 145 3 0
5 10 3 23 -1 12 -3 22 -4 22 -1 0 -2 26 -3 58 -1 31 1 57 4 57 5 0 4 38 -1 48
-4 9 0 193 5 202 3 5 0 10 -7 11 -10 0 -10 2 0 6 6 2 10 9 6 14 -7 12 -7 276
1 289 3 5 0 10 -7 10 -10 0 -10 2 -1 8 7 4 8 13 4 20 -4 7 -4 35 -1 62 4 33 3
50 -4 51 -7 0 -7 2 -1 5 6 2 9 24 7 49 -2 25 -1 45 3 45 14 0 34 -35 35 -58 0
-15 4 -21 12 -16 8 5 9 2 5 -9 -3 -10 -2 -17 4 -17 6 0 8 -4 5 -9 -3 -5 2 -12
11 -15 15 -6 15 -8 3 -16 -10 -7 -11 -10 -2 -10 6 0 12 -5 12 -11 0 -6 7 -17
15 -26 8 -8 13 -19 10 -24 -4 -5 -1 -9 6 -9 7 0 10 -3 7 -6 -4 -3 7 -30 23
-61 16 -30 29 -62 29 -70 0 -8 5 -11 10 -8 6 4 10 -7 10 -27 0 -25 3 -29 10
-18 8 13 10 12 10 -3 0 -11 7 -31 15 -45 8 -15 19 -38 25 -52 5 -14 14 -32 19
-40 17 -29 61 -129 61 -139 0 -6 5 -11 10 -11 6 0 10 -9 10 -19 0 -11 5 -21
10 -23 6 -2 12 -13 13 -26 0 -12 5 -22 9 -22 4 0 8 -7 8 -15 0 -8 5 -15 10
-15 6 0 10 -9 10 -20 0 -11 5 -20 11 -20 5 0 8 -4 4 -10 -6 -10 13 -50 30 -62
7 -5 7 -8 0 -8 -5 0 -2 -7 8 -14 10 -8 18 -17 18 -20 -1 -16 12 -66 17 -61 6
6 32 -42 32 -61 0 -8 5 -14 11 -14 6 0 9 -6 6 -14 -3 -8 1 -20 8 -26 8 -7 12
-16 9 -21 -3 -5 0 -9 6 -9 6 0 8 -4 5 -10 -3 -5 -1 -10 5 -10 6 0 8 -4 5 -10
-3 -5 -3 -10 2 -10 9 0 49 -91 45 -102 -1 -5 2 -8 8 -8 5 0 10 -9 10 -21 0
-11 5 -17 10 -14 6 3 10 -3 10 -14 0 -11 5 -23 10 -26 6 -3 10 -15 10 -26 0
-10 5 -19 10 -19 6 0 10 -7 10 -15 0 -8 5 -15 11 -15 5 0 8 -4 5 -8 -3 -5 13
-44 34 -86 22 -43 37 -83 33 -89 -3 -7 -3 -9 2 -5 9 8 35 -36 35 -58 0 -8 5
-14 10 -14 6 0 10 -9 10 -20 0 -11 5 -20 10 -20 6 0 10 -9 10 -20 0 -11 5 -20
11 -20 5 0 7 -4 4 -10 -3 -5 -1 -10 5 -10 6 0 9 -4 6 -9 -3 -4 1 -17 9 -27 8
-10 15 -27 15 -36 0 -10 5 -18 10 -18 6 0 10 -7 10 -16 0 -8 4 -13 9 -9 6 3 8
-4 6 -15 -2 -11 -1 -20 3 -20 10 0 35 -61 33 -79 -1 -7 2 -10 8 -6 7 3 11 -2
11 -14 0 -12 5 -21 10 -21 6 0 10 -9 10 -19 0 -11 5 -23 10 -26 6 -4 8 -11 5
-16 -4 -5 -3 -9 2 -9 9 0 33 -48 33 -67 0 -7 4 -13 8 -13 14 0 32 23 32 42 0
10 5 18 11 18 6 0 9 8 7 18 -2 9 4 26 14 36 10 11 18 28 18 37 0 10 4 19 9 21
5 2 11 12 13 23 1 11 5 22 8 25 15 14 40 61 40 75 0 8 4 15 8 15 5 0 9 7 10
15 1 8 3 22 4 30 1 8 5 12 10 9 7 -5 10 3 7 22 0 4 3 10 8 13 12 9 43 70 43
85 0 7 6 18 13 24 6 7 12 16 12 20 2 21 18 52 27 52 5 0 8 6 6 12 -3 7 1 19 9
26 7 8 11 18 8 23 -4 5 -1 9 4 9 6 0 11 7 11 15 0 9 11 33 25 55 14 22 25 44
25 50 0 6 4 18 9 28 5 9 14 29 21 44 7 15 17 25 21 22 4 -2 6 5 4 16 -2 11 1
20 7 20 6 0 8 3 5 6 -4 4 2 19 13 34 11 15 17 30 13 34 -3 3 -1 6 5 6 7 0 12
9 12 19 0 11 5 21 11 23 5 2 11 10 12 18 2 8 6 21 10 28 5 6 5 18 1 25 -4 6
-3 9 1 4 8 -6 48 64 50 86 0 4 5 11 12 15 6 4 14 24 18 44 4 21 11 35 16 32 5
-3 9 4 9 15 0 10 4 21 9 23 5 2 11 12 13 23 1 11 5 22 8 25 12 12 63 121 63
135 0 8 4 12 7 10 4 -3 10 9 14 25 3 20 12 30 23 30 14 0 15 2 4 9 -9 6 -10
11 -2 15 6 4 9 12 6 17 -4 5 -3 9 2 9 4 0 14 15 21 33 8 17 20 44 27 58 8 14
11 30 7 34 -4 5 -2 5 5 2 7 -5 14 4 18 24 4 17 13 33 20 36 8 2 11 11 8 19 -3
8 0 14 6 14 6 0 11 6 11 13 0 17 30 80 43 88 5 3 8 10 8 15 -1 19 23 73 31 68
4 -3 8 6 8 20 0 14 5 26 10 26 6 0 9 3 9 8 -3 14 23 72 33 72 5 0 7 4 3 9 -3
5 -1 12 5 16 5 3 10 15 10 26 0 11 5 17 10 14 6 -3 10 3 10 15 0 11 6 29 12
40 15 23 23 26 15 6z"/>
<path d="M820 3611 c-93 -93 -171 -166 -174 -163 -3 3 -6 0 -6 -6 0 -14 -127
-141 -135 -134 -3 3 -5 0 -5 -6 0 -15 -237 -252 -244 -244 -3 3 -6 0 -6 -6 0
-16 -137 -152 -144 -145 -3 4 -6 2 -6 -4 0 -15 -64 -83 -78 -83 -6 0 -9 -7 -5
-17 4 -11 3 -14 -5 -9 -19 11 -14 -2 8 -24 11 -11 25 -20 32 -20 6 0 9 -3 5
-6 -7 -7 140 -154 155 -154 6 0 9 -3 6 -6 -8 -7 375 -392 384 -387 5 2 8 -2 8
-9 0 -7 9 -19 20 -26 12 -7 18 -18 14 -24 -4 -7 -3 -8 4 -4 7 4 12 2 12 -3 0
-6 7 -11 15 -11 8 0 14 -6 13 -12 -2 -7 3 -12 10 -10 6 1 12 -3 12 -8 0 -16
208 -219 216 -212 4 4 4 -1 1 -11 -4 -11 -3 -16 3 -12 6 3 10 2 10 -3 0 -5 11
-15 25 -22 13 -7 22 -17 19 -22 -3 -4 -1 -8 5 -8 6 0 9 348 9 990 0 545 -2
990 -5 990 -3 0 -81 -76 -173 -169z"/>
<path d="M4593 3773 c-7 -2 -13 -9 -13 -14 0 -6 5 -7 10 -4 11 7 14 -8 3 -19
-10 -10 -10 -115 -1 -109 5 2 8 -1 8 -6 0 -6 -3 -11 -7 -11 -5 0 -8 -15 -8
-34 0 -19 3 -32 7 -30 4 3 8 0 8 -5 0 -6 -4 -11 -10 -11 -6 0 -6 -9 0 -26 6
-14 6 -23 2 -20 -4 2 -8 -6 -8 -19 0 -13 4 -21 8 -19 4 3 8 0 8 -5 0 -6 -4
-11 -10 -11 -6 0 -6 -9 0 -26 6 -14 6 -23 2 -20 -4 2 -8 -6 -8 -19 0 -13 4
-21 8 -19 4 3 8 0 8 -5 0 -6 -3 -11 -7 -11 -5 0 -8 -29 -8 -64 -1 -36 3 -62 7
-60 4 3 8 0 8 -5 0 -6 -5 -11 -11 -11 -8 0 -7 -6 2 -17 8 -9 9 -14 3 -10 -6 3
-11 0 -11 -8 0 -8 4 -12 9 -9 4 3 8 0 8 -5 0 -6 -3 -11 -7 -11 -5 0 -8 -15 -8
-34 0 -19 3 -32 7 -30 4 3 8 0 8 -5 0 -6 -3 -11 -7 -11 -5 0 -8 -15 -8 -34 0
-19 3 -32 7 -30 4 3 8 0 8 -5 0 -6 -3 -11 -7 -11 -5 0 -8 -15 -8 -34 0 -19 3
-32 7 -30 4 3 8 0 8 -5 0 -6 -4 -11 -10 -11 -6 0 -6 -9 0 -26 6 -14 6 -23 2
-20 -4 2 -8 -6 -8 -19 0 -13 4 -21 8 -19 4 3 8 0 8 -5 0 -6 -4 -11 -10 -11 -6
0 -6 -9 0 -26 6 -14 6 -23 2 -20 -4 2 -8 -6 -8 -19 0 -13 4 -21 8 -19 4 3 8 0
8 -5 0 -6 -3 -11 -7 -11 -5 0 -8 -29 -8 -64 -1 -36 3 -62 7 -60 4 3 8 0 8 -5
0 -6 -5 -11 -11 -11 -8 0 -7 -6 2 -17 8 -9 9 -14 3 -10 -6 3 -11 0 -11 -8 0
-8 4 -12 9 -9 4 3 8 0 8 -5 0 -6 -3 -11 -7 -11 -5 0 -8 -15 -8 -34 0 -19 3
-32 7 -30 4 3 8 0 8 -5 0 -6 -3 -11 -7 -11 -5 0 -8 -15 -8 -34 0 -19 3 -32 7
-30 4 3 8 0 8 -5 0 -6 -3 -11 -7 -11 -5 0 -8 -15 -8 -34 0 -19 3 -32 7 -30 4
3 8 0 8 -5 0 -6 -4 -11 -10 -11 -6 0 -6 -9 0 -26 6 -14 6 -23 2 -20 -4 2 -8
-6 -8 -19 0 -13 4 -21 8 -19 4 3 8 0 8 -5 0 -6 -4 -11 -10 -11 -6 0 -6 -9 0
-26 6 -14 6 -23 2 -20 -4 2 -8 -6 -8 -19 0 -13 4 -21 8 -19 4 3 8 0 8 -5 0 -6
-3 -11 -7 -11 -5 0 -8 -29 -8 -64 -1 -36 3 -62 7 -60 4 3 8 0 8 -5 0 -6 -5
-11 -11 -11 -6 0 -7 -5 -2 -12 10 -17 13 -39 4 -34 -9 6 -7 -51 2 -61 4 -3 29
17 56 45 27 28 51 48 55 45 3 -4 6 -1 6 5 0 15 65 82 79 82 7 0 9 5 6 10 -3 6
4 14 17 19 13 6 20 10 16 10 -12 1 110 121 123 121 7 0 10 3 6 6 -7 8 36 53
46 47 4 -2 7 1 7 7 0 6 36 46 80 90 44 44 80 85 80 92 0 9 3 9 10 -2 5 -8 10
-10 10 -4 0 13 40 61 40 48 0 -5 6 2 13 16 8 14 19 24 25 23 7 -2 11 0 10 5
-3 10 120 132 134 132 6 0 9 3 5 6 -6 6 139 154 151 154 15 0 12 51 -3 56 -8
4 -15 12 -15 20 0 8 -6 14 -14 14 -8 0 -18 9 -21 20 -4 11 -15 20 -26 20 -11
0 -18 4 -15 8 3 5 -15 27 -39 50 -25 23 -45 46 -45 52 0 5 -3 9 -7 8 -13 -4
-53 35 -53 52 0 13 -1 13 -10 0 -7 -11 -10 -12 -10 -2 0 16 -120 138 -132 135
-4 -2 -7 0 -7 5 3 17 -2 33 -8 29 -10 -6 -53 39 -46 47 4 3 1 6 -6 6 -6 0 -28
17 -48 38 -20 20 -40 36 -45 34 -4 -1 -7 1 -7 5 1 5 1 15 0 23 -1 13 -2 13
-11 0 -9 -13 -10 -13 -10 0 0 18 -56 70 -65 61 -4 -3 -5 -1 -3 6 2 6 -18 31
-44 56 -27 24 -48 50 -48 56 0 7 -3 10 -7 8 -10 -5 -123 110 -115 117 3 4 0 6
-7 6 -16 0 -91 77 -83 85 6 6 -8 5 -25 -2z"/>
</g>
</svg>
